<svg height="512" viewBox="0 0 64 64" width="512" xmlns="http://www.w3.org/2000/svg"><g id="Import-sign_in-access-entrance-arrow" data-name="Import-sign in-access-entrance-arrow"><path d="m57 23v18l-25-3v7l-14-13 14-13v7z" fill="#ec455a"/><path d="m61 51v10h-58v-58h58v10 6h-9v-7h-40v40h40v-7h9z" fill="#f6cc4f"/><path d="m32.4 18.083a1 1 0 0 0 -1.08.184l-14 13a1 1 0 0 0 0 1.466l14 13a1 1 0 0 0 1.68-.733v-5.873l23.881 2.866a1.011 1.011 0 0 0 .783-.245 1 1 0 0 0 .336-.748v-18a1 1 0 0 0 -1.119-.993l-23.881 2.866v-5.873a1 1 0 0 0 -.6-.917zm23.6 6.044v15.746l-23.881-2.866a1 1 0 0 0 -1.119.993v4.707l-11.53-10.707 11.53-10.707v4.707a1 1 0 0 0 1.119.993z"/><path d="m62 19v-16a1 1 0 0 0 -1-1h-58a1 1 0 0 0 -1 1v58a1 1 0 0 0 1 1h58a1 1 0 0 0 1-1v-16a1 1 0 0 0 -1-1h-9a1 1 0 0 0 -1 1v6h-38v-38h38v6a1 1 0 0 0 1 1h9a1 1 0 0 0 1-1zm-2-1h-7v-6a1 1 0 0 0 -1-1h-40a1 1 0 0 0 -1 1v40a1 1 0 0 0 1 1h40a1 1 0 0 0 1-1v-6h7v14h-56v-56h56z"/></g></svg>