<svg height="512" viewBox="0 0 64 64" width="512" xmlns="http://www.w3.org/2000/svg"><g id="export-sign_out-log_out-logout-exit-arrow" data-name="export-sign out-log out-logout-exit-arrow"><path d="m61 51v10h-58v-58h58v10 8h-9v-9h-40v40h40v-9h9z" fill="#f6cc4f"/><path d="m57 32-14 13v-7l-25 3v-18l25 3v-7z" fill="#ec455a"/><path d="m42.6 45.917a1 1 0 0 0 1.08-.184l14-13a1 1 0 0 0 0-1.466l-14-13a1 1 0 0 0 -1.68.733v5.873l-23.881-2.866a1 1 0 0 0 -1.119.993v18a1 1 0 0 0 1.119.993l23.881-2.866v5.873a1 1 0 0 0 .6.917zm-23.6-6.044v-15.746l23.881 2.866a1 1 0 0 0 1.119-.993v-4.707l11.53 10.707-11.53 10.707v-4.707a1 1 0 0 0 -1-1 .95.95 0 0 0 -.119.007z"/><path d="m62 21v-18a1 1 0 0 0 -1-1h-58a1 1 0 0 0 -1 1v58a1 1 0 0 0 1 1h58a1 1 0 0 0 1-1v-18a1 1 0 0 0 -1-1h-9a1 1 0 0 0 -1 1v8h-38v-38h38v8a1 1 0 0 0 1 1h9a1 1 0 0 0 1-1zm-2-1h-7v-8a1 1 0 0 0 -1-1h-40a1 1 0 0 0 -1 1v40a1 1 0 0 0 1 1h40a1 1 0 0 0 1-1v-8h7v16h-56v-56h56z"/></g></svg>