<?xml version="1.0" encoding="iso-8859-1"?>
<!-- Generator: Adobe Illustrator 19.0.0, SVG Export Plug-In . SVG Version: 6.00 Build 0)  -->
<svg version="1.1" id="Layer_1" xmlns="http://www.w3.org/2000/svg" xmlns:xlink="http://www.w3.org/1999/xlink" x="0px" y="0px"
	 viewBox="0 0 512 512" style="enable-background:new 0 0 512 512;" xml:space="preserve">
<g transform="translate(1 1)">
	<g>
		<path style="fill:#FFE100;" d="M169.787,263.533l-15.36-23.04c-17.067-29.867-58.027-43.52-85.333-33.28
			c-4.267,0.853-6.827,3.413-10.24,5.12c-10.24,6.827-8.533,14.507-8.533,17.067s48.64,52.053,76.8,102.4
			c0,0,24.747,40.96,51.2,68.267v25.6c0,42.667,34.133,76.8,76.8,76.8h85.333c33.28,0,67.413-28.16,75.093-60.587
			c1.707-7.68,5.12-18.773,10.24-24.747c7.68-8.533,17.067-29.867,17.067-59.733c0-5.973,0-69.12,0-76.8l0,0V178.2
			c0-18.773-15.36-34.133-34.133-34.133s-34.133,15.36-34.133,34.133v59.733V75.8c0-18.773-15.36-34.133-34.133-34.133
			s-34.133,20.48-34.133,34.133v102.4V41.667c0-18.773-15.36-34.133-34.133-34.133s-34.133,12.8-34.133,34.133V178.2V78.36
			c0-23.893-15.36-36.693-34.133-36.693S169.787,56.173,169.787,75.8"/>
		<path style="fill:#FFE100;" d="M434.321,144.067c-4.267,0-8.533,0.853-12.8,2.56c12.8,5.973,21.333,19.627,21.333,35.84v155.307
			c0,33.28-9.387,58.027-17.067,67.413c-5.12,6.827-8.533,19.627-10.24,28.16c-7.68,36.693-41.813,68.267-75.093,68.267h25.6
			c33.28,0,67.413-31.573,75.093-68.267c1.707-9.387,5.12-21.333,10.24-28.16c7.68-9.387,17.067-34.133,17.067-67.413V182.467
			C468.454,161.133,453.094,144.067,434.321,144.067"/>
	</g>
	<g>
		<path style="fill:#FFFFFF;" d="M203.921,425.667v-25.6c-26.453-27.307-51.2-68.267-51.2-68.267
			c-28.16-50.347-76.8-99.84-76.8-102.4s-1.707-10.24,8.533-17.067c3.413-1.707,5.973-4.267,10.24-5.12
			c2.56-0.853,5.12-1.707,7.68-1.707c-11.947-2.56-23.04-1.707-33.28,1.707c-3.413,0.853-6.827,3.413-10.24,5.12
			c-10.24,6.827-8.533,14.507-8.533,17.067s48.64,52.053,76.8,102.4c0,0,24.747,40.96,51.2,68.267v25.6
			c0,42.667,8.533,76.8,51.2,76.8h25.6C212.454,502.467,203.921,468.333,203.921,425.667"/>
		<path style="fill:#FFFFFF;" d="M169.787,261.827c3.413,4.267,6.827,8.533,10.24,12.8l15.36,23.04V75.8
			c0-12.8,3.413-24.747,11.947-29.867c-2.56-2.56-5.973-4.267-11.947-4.267c-18.773,0-25.6,15.36-25.6,34.133"/>
	</g>
	<path style="fill:#FFA800;" d="M408.721,144.067c-4.267,0-8.533,0.853-12.8,2.56c12.8,5.973,21.333,19.627,21.333,35.84v155.307
		c0,33.28-9.387,58.027-17.067,67.413c-5.12,6.827-8.533,19.627-10.24,28.16c-7.68,36.693-41.813,68.267-75.093,68.267h25.6
		c33.28,0,67.413-31.573,75.093-68.267c1.707-9.387,5.12-21.333,10.24-28.16c7.68-9.387,17.067-34.133,17.067-67.413V182.467
		C442.854,161.133,427.494,144.067,408.721,144.067"/>
	<path d="M203.921,434.2c-2.56,0-4.267-0.853-5.973-2.56c-2.56-3.413-6.827-6.827-11.093-11.093
		c-5.12-5.12-11.093-10.24-14.507-14.507c-3.413-3.413-2.56-8.533,0.853-11.947c3.413-3.413,8.533-2.56,11.947,0.853
		c3.413,3.413,8.533,8.533,13.653,13.653c4.267,4.267,9.387,8.533,11.947,11.947c3.413,3.413,3.413,8.533-0.853,11.947
		C208.187,433.347,205.627,434.2,203.921,434.2z"/>
	<path d="M178.321,289.133c-3.413,0-5.973-1.707-7.68-5.12l-8.533-17.067c-1.707-4.267,0-9.387,3.413-11.093
		c4.267-1.707,9.387,0,11.093,3.413l8.533,17.067c1.707,4.267,0,9.387-3.413,11.093
		C180.881,289.133,180.027,289.133,178.321,289.133z"/>
	<path d="M238.054,257.56c-5.12,0-8.533-3.413-8.533-8.533V178.2c0-5.12,3.413-8.533,8.533-8.533c5.12,0,8.533,3.413,8.533,8.533
		v70.827C246.587,254.147,243.174,257.56,238.054,257.56z"/>
	<path d="M306.321,231.96c-5.12,0-8.533-3.413-8.533-8.533V178.2c0-5.12,3.413-8.533,8.533-8.533c5.12,0,8.533,3.413,8.533,8.533
		v45.227C314.854,228.547,311.441,231.96,306.321,231.96z"/>
	<path d="M374.587,266.093c-5.12,0-8.533-3.413-8.533-8.533V178.2c0-5.12,3.413-8.533,8.533-8.533s8.533,3.413,8.533,8.533v79.36
		C383.121,262.68,379.707,266.093,374.587,266.093z"/>
	<path d="M340.454,511h-85.333c-46.933,0-85.333-38.4-85.333-85.333V403.48c-25.6-28.16-48.64-65.707-50.347-67.413
		c-19.627-35.84-51.2-71.68-65.707-88.747c-11.947-13.653-12.8-14.507-11.947-19.627c0-3.413-0.853-14.507,11.947-23.04
		c4.267-2.56,7.68-5.12,11.947-5.973c32.427-12.8,76.8,4.267,95.573,36.693v-48.64c0-5.12,3.413-8.533,8.533-8.533
		c5.12,0,8.533,3.413,8.533,8.533v76.8c0,3.413-2.56,6.827-5.973,8.533c-3.413,0.853-7.68,0-9.387-3.413l-15.36-23.04
		c-16.213-28.16-52.907-38.4-75.093-30.72c-2.56,0.853-5.12,2.56-8.533,4.267c-5.12,3.413-5.12,5.12-5.12,7.68
		c1.707,1.707,5.12,5.973,7.68,9.387c15.36,17.92,47.787,54.613,68.267,91.307c0,0,24.747,40.107,50.347,66.56
		c1.707,1.707,2.56,3.413,2.56,5.973v25.6c0,37.547,30.72,68.267,68.267,68.267h85.333c29.013,0,60.587-24.747,66.56-53.76
		c2.56-12.8,6.827-23.04,11.947-29.013c5.12-5.973,15.36-24.747,15.36-53.76c0-5.973,0-69.12,0-76.8v-0.853V178.2
		c0-14.507-11.093-25.6-25.6-25.6c-14.507,0-25.6,11.093-25.6,25.6v59.733c0,5.12-3.413,8.533-8.533,8.533
		c-5.12,0-8.533-3.413-8.533-8.533V75.8c0-14.507-11.093-25.6-25.6-25.6c-13.653,0-25.6,17.067-25.6,25.6v102.4
		c0,5.12-3.413,8.533-8.533,8.533s-8.533-3.413-8.533-8.533V41.667c0-14.507-11.093-25.6-25.6-25.6c-11.947,0-25.6,6.827-25.6,25.6
		V178.2c0,5.12-3.413,8.533-8.533,8.533c-5.12,0-8.533-3.413-8.533-8.533V78.36c-0.853-17.067-10.24-28.16-26.453-28.16
		c-14.507,0-25.6,11.093-25.6,25.6v42.667c0,5.12-3.413,8.533-8.533,8.533c-5.12,0-8.533-3.413-8.533-8.533V75.8
		c0-23.893,18.773-42.667,42.667-42.667c10.24,0,18.773,2.56,25.6,7.68C229.521,16.067,247.441-1,272.187-1
		c23.893,0,42.667,18.773,42.667,42.667v1.707c6.827-5.973,16.213-10.24,25.6-10.24c23.893,0,42.667,18.773,42.667,42.667v68.267
		c6.827-5.12,16.213-8.533,25.6-8.533c23.893,0,42.667,18.773,42.667,42.667v102.4v0.853c0,8.533,0,70.827,0,75.947
		c0,31.573-10.24,55.467-18.773,65.707c-3.413,3.413-5.973,11.093-8.533,21.333C415.547,480.28,377.147,511,340.454,511z"/>
	<path d="M400.187,434.2c-3.413,0-6.827-2.56-8.533-5.973c-0.853-4.267,1.707-9.387,5.973-10.24
		c22.187-5.973,27.307-12.8,29.013-19.627c1.707-4.267,5.973-6.827,10.24-5.973c4.267,1.707,6.827,5.973,5.973,10.24
		c-5.973,19.627-24.747,27.307-40.96,31.573C401.894,434.2,401.041,434.2,400.187,434.2z"/>
	<path d="M178.321,152.6c0-5.12-3.413-8.533-8.533-8.533c-5.12,0-8.533,3.413-8.533,8.533c0,5.12,3.413,8.533,8.533,8.533
		C174.907,161.133,178.321,157.72,178.321,152.6"/>
</g>
<g>
</g>
<g>
</g>
<g>
</g>
<g>
</g>
<g>
</g>
<g>
</g>
<g>
</g>
<g>
</g>
<g>
</g>
<g>
</g>
<g>
</g>
<g>
</g>
<g>
</g>
<g>
</g>
<g>
</g>
</svg>
